<?xml version="1.0" standalone="no"?>
<!DOCTYPE svg PUBLIC "-//W3C//DTD SVG 20010904//EN"
 "http://www.w3.org/TR/2001/REC-SVG-20010904/DTD/svg10.dtd">
<svg version="1.0" xmlns="http://www.w3.org/2000/svg"
 width="4000.000000pt" height="4000.000000pt" viewBox="0 0 4000.000000 4000.000000"
 preserveAspectRatio="xMidYMid meet">
<metadata>
Created by potrace 1.11, written by Peter Selinger 2001-2013
</metadata>
<g transform="translate(0.000000,4000.000000) scale(0.100000,-0.100000)"
fill="#000000" stroke="none">
<path d="M14257 23094 c-1 -1 -47 -4 -102 -8 -55 -3 -113 -8 -128 -11 -16 -3
-45 -7 -65 -10 -63 -7 -240 -47 -307 -69 -153 -53 -385 -166 -385 -188 0 -5
-5 -8 -10 -8 -41 0 -274 -220 -345 -326 -22 -32 -42 -61 -45 -64 -16 -14 -93
-185 -115 -255 -14 -44 -28 -87 -32 -95 -3 -8 -7 -26 -9 -40 -1 -14 -5 -34 -7
-45 -30 -133 -36 -459 -12 -625 3 -19 8 -53 11 -75 3 -22 8 -49 9 -60 2 -11 8
-42 14 -70 6 -27 13 -60 15 -73 17 -80 116 -312 137 -320 5 -2 9 -10 9 -18 0
-8 5 -14 10 -14 6 0 10 -5 10 -10 0 -12 95 -155 122 -184 10 -11 18 -23 18
-26 0 -4 9 -18 21 -31 12 -13 35 -43 52 -66 17 -24 34 -43 39 -43 4 0 8 -6 8
-14 0 -8 3 -16 8 -18 7 -3 40 -41 82 -97 13 -18 33 -43 45 -55 18 -20 74 -84
170 -194 32 -37 125 -132 528 -545 144 -148 308 -316 364 -373 113 -116 107
-109 216 -255 68 -90 187 -299 170 -299 -3 0 -1 -6 4 -12 6 -7 14 -26 18 -43
12 -45 12 -45 15 -47 2 -4 7 -28 23 -128 23 -144 10 -326 -30 -420 -29 -68
-38 -85 -73 -131 -44 -59 -140 -137 -161 -132 -5 2 -9 -1 -9 -5 0 -5 -28 -17
-62 -27 -79 -25 -250 -25 -318 -2 -64 21 -120 49 -120 59 0 4 -4 8 -10 8 -5 0
-19 8 -31 18 -96 78 -156 200 -176 362 -5 36 -8 206 -8 378 l0 312 -561 0
c-441 0 -563 -3 -566 -12 -6 -21 -1 -675 6 -767 4 -47 11 -104 16 -128 6 -24
13 -60 16 -81 3 -20 10 -45 15 -54 5 -10 7 -18 4 -18 -3 0 -1 -9 5 -21 7 -11
14 -32 16 -46 6 -32 70 -175 101 -225 13 -21 23 -42 23 -47 0 -5 4 -11 8 -13
5 -1 23 -25 41 -51 38 -56 145 -166 216 -222 28 -22 52 -42 55 -45 6 -6 67
-45 125 -81 60 -37 230 -119 247 -119 8 0 19 -5 26 -12 7 -7 12 -9 12 -5 0 4
10 2 23 -5 12 -6 27 -13 32 -14 6 -1 30 -7 55 -15 25 -7 50 -13 55 -15 6 -1
41 -9 79 -18 38 -9 71 -14 73 -12 3 3 15 1 27 -4 80 -30 548 -34 693 -6 11 3
43 8 70 12 58 8 62 9 138 30 33 9 67 17 75 19 75 15 401 163 430 196 3 3 39
28 80 57 74 50 176 143 234 213 125 149 224 365 260 564 3 17 8 41 11 55 28
127 23 466 -10 640 -4 19 -9 46 -12 60 -34 194 -127 406 -272 623 -50 75 -97
141 -104 149 -7 7 -20 25 -29 40 -18 27 -206 252 -269 320 -19 20 -50 56 -69
78 -19 23 -46 54 -60 69 -25 27 -64 71 -150 171 -25 29 -56 65 -70 80 -37 41
-132 150 -153 174 -9 12 -25 30 -35 41 -10 11 -47 54 -82 95 -36 41 -76 87
-90 101 -14 15 -34 37 -44 50 -21 25 -211 243 -257 294 -129 144 -246 290
-279 350 -12 22 -26 42 -29 45 -11 7 -82 176 -87 207 -3 15 -8 31 -11 36 -3 5
-8 26 -10 46 -3 20 -8 61 -12 91 -28 227 30 401 173 516 70 56 122 80 208 98
229 47 426 -49 535 -261 50 -96 59 -129 79 -268 3 -22 7 -110 9 -195 2 -85 4
-160 4 -166 1 -7 26 -11 64 -12 80 -1 399 -9 697 -18 129 -3 261 -7 293 -8 57
-1 57 -1 58 29 1 17 1 127 1 245 -1 319 -12 422 -62 585 -84 271 -255 505
-485 665 -27 19 -51 38 -53 43 -2 4 -10 7 -18 7 -8 0 -14 4 -14 9 0 5 -8 11
-17 14 -10 4 -42 20 -72 36 -48 26 -126 63 -141 65 -3 1 -30 11 -60 23 -51 20
-137 47 -189 58 -143 32 -203 41 -326 51 -77 6 -244 12 -248 8z"/>
<path d="M22007 23094 c-1 -1 -42 -5 -91 -9 -50 -3 -92 -8 -95 -10 -4 -1 -33
-6 -66 -10 -32 -3 -62 -8 -65 -10 -3 -2 -21 -6 -40 -9 -19 -3 -50 -10 -68 -15
-18 -5 -36 -10 -40 -11 -51 -7 -203 -63 -307 -113 -70 -34 -241 -139 -255
-156 -3 -3 -25 -22 -50 -42 -168 -136 -308 -337 -375 -540 -16 -46 -30 -93
-32 -104 -1 -11 -10 -49 -18 -85 -23 -102 -30 -217 -25 -402 0 -10 0 -35 0
-55 -1 -60 10 -177 26 -268 1 -11 5 -34 8 -50 25 -175 101 -363 213 -534 51
-77 189 -268 203 -281 3 -3 28 -34 55 -69 28 -36 57 -72 65 -81 8 -9 31 -36
52 -61 57 -69 137 -161 216 -248 13 -14 159 -165 325 -335 665 -680 638 -651
740 -787 31 -42 57 -81 57 -87 0 -7 4 -12 8 -12 4 0 29 -42 54 -92 56 -114 91
-213 104 -298 2 -14 7 -47 11 -75 20 -126 -8 -361 -49 -410 -4 -5 -8 -16 -8
-25 -1 -28 -105 -145 -169 -187 -87 -59 -153 -77 -281 -76 -180 0 -315 68
-403 201 -23 35 -61 119 -66 144 -1 4 -3 13 -6 20 -15 50 -22 165 -23 434 -1
170 -2 319 -2 332 l0 22 -564 0 -563 0 3 -392 c1 -216 5 -408 8 -426 3 -18 8
-52 12 -75 3 -23 7 -46 8 -52 2 -5 6 -28 11 -50 4 -22 10 -44 14 -50 3 -5 7
-19 8 -30 5 -30 45 -137 61 -162 7 -12 15 -28 16 -35 3 -18 50 -100 99 -173
45 -65 209 -230 281 -282 64 -46 205 -128 278 -162 53 -25 218 -88 233 -90 3
-1 7 -2 10 -2 3 -1 10 -3 15 -4 6 -1 11 -3 13 -5 1 -1 9 -3 17 -5 8 -1 42 -8
75 -15 68 -15 72 -16 140 -25 28 -3 61 -9 75 -12 42 -9 421 -11 485 -2 33 4
83 10 110 13 28 3 61 8 75 11 14 4 38 8 53 11 15 3 51 12 80 20 29 8 60 16 70
19 9 3 25 7 36 9 32 7 224 88 281 119 106 57 251 159 330 234 137 129 259 317
310 478 12 39 24 77 27 85 3 8 7 20 8 25 47 209 56 336 42 560 -8 120 -18 186
-52 351 -26 123 -120 335 -216 485 -48 76 -146 216 -159 229 -3 3 -18 23 -35
45 -16 22 -34 45 -40 51 -5 7 -19 24 -30 40 -11 15 -33 42 -50 60 -16 17 -49
54 -72 80 -23 27 -52 61 -65 75 -13 14 -48 54 -78 89 -30 35 -91 104 -134 154
-44 50 -82 93 -85 96 -3 3 -33 37 -66 75 -33 39 -62 72 -65 75 -3 3 -32 37
-65 75 -33 39 -63 72 -66 75 -3 3 -36 41 -74 85 -38 44 -74 85 -80 91 -5 6
-32 37 -60 69 -27 31 -61 70 -75 85 -14 15 -47 54 -75 86 -27 32 -61 70 -75
85 -14 15 -45 51 -70 80 -25 29 -52 61 -62 70 -64 66 -178 238 -225 339 -28
61 -65 186 -69 235 -1 22 -3 40 -4 40 -9 0 -4 215 6 263 37 180 180 323 369
369 49 12 193 9 240 -5 210 -60 360 -274 380 -542 2 -25 5 -45 5 -45 1 0 3
-70 4 -155 l1 -155 65 -2 c36 -1 65 -2 65 -3 0 0 99 -3 220 -5 197 -4 427 -10
677 -18 l87 -2 -3 310 c-2 170 -7 324 -10 340 -4 17 -11 50 -16 75 -9 51 -13
65 -39 160 -22 80 -117 263 -181 349 -57 77 -224 251 -241 251 -4 0 -14 6 -22
14 -32 32 -159 111 -252 156 -139 67 -305 122 -440 145 -16 3 -43 8 -60 11
-72 14 -211 25 -348 28 -65 1 -119 1 -120 0z"/>
<path d="M3935 23010 c-2 -4 3 -38 11 -76 8 -38 17 -85 20 -104 3 -19 8 -42
11 -50 3 -8 7 -28 9 -44 2 -16 6 -39 9 -50 9 -41 67 -321 71 -346 4 -20 11
-54 19 -90 1 -3 5 -25 9 -50 5 -25 10 -54 13 -65 2 -11 6 -31 9 -45 3 -14 16
-79 30 -145 13 -66 26 -129 28 -140 5 -23 19 -98 21 -105 1 -3 5 -23 9 -45 4
-22 12 -62 19 -90 6 -27 11 -54 12 -60 1 -9 12 -66 22 -110 3 -11 6 -31 8 -45
2 -14 11 -54 19 -90 9 -36 18 -83 21 -105 3 -22 10 -53 15 -70 8 -30 32 -157
35 -185 0 -9 4 -20 7 -25 3 -6 9 -32 13 -60 5 -27 9 -54 11 -60 1 -5 4 -21 7
-35 3 -14 8 -36 11 -50 3 -14 8 -36 10 -50 3 -14 10 -50 16 -80 6 -30 13 -66
16 -80 2 -14 7 -36 10 -50 3 -14 8 -36 10 -50 2 -14 7 -36 10 -50 3 -14 8 -36
10 -50 10 -53 13 -67 29 -145 9 -44 19 -89 21 -100 3 -11 7 -31 9 -45 6 -34
13 -68 19 -88 3 -9 8 -33 10 -52 3 -19 7 -42 10 -50 3 -8 8 -32 11 -53 3 -22
12 -69 20 -105 16 -71 24 -115 30 -147 2 -11 20 -101 40 -199 20 -99 39 -189
41 -200 9 -45 37 -183 45 -226 5 -25 12 -56 14 -70 3 -14 7 -36 10 -50 3 -14
8 -36 11 -50 4 -24 19 -101 28 -145 3 -11 11 -54 20 -95 8 -41 17 -86 20 -100
2 -14 9 -45 14 -70 6 -25 13 -61 16 -80 3 -19 8 -46 12 -60 7 -30 24 -110 49
-240 3 -14 7 -37 10 -53 3 -15 12 -60 21 -100 9 -39 17 -81 19 -92 2 -11 6
-32 9 -47 3 -16 8 -39 11 -53 3 -14 7 -36 10 -50 3 -14 8 -37 11 -52 3 -16 7
-35 8 -43 2 -8 8 -40 14 -70 16 -75 22 -107 32 -160 9 -43 12 -60 25 -120 3
-14 7 -36 10 -50 3 -14 12 -61 21 -105 10 -44 18 -88 19 -97 1 -10 4 -20 7
-24 4 -3 4 -12 2 -19 -3 -7 1 -17 8 -21 17 -12 128 -18 188 -11 14 2 33 0 42
-5 9 -4 19 -5 21 -1 3 5 45 7 94 6 108 -3 131 -3 163 0 14 2 33 0 42 -5 9 -4
19 -5 21 -1 3 5 45 7 94 6 108 -3 131 -3 163 0 14 2 32 0 41 -5 9 -4 19 -4 23
-1 3 4 50 7 103 7 l97 1 13 60 c7 33 15 74 18 90 3 17 14 73 25 125 11 52 22
106 24 120 3 14 7 36 10 50 6 24 22 105 32 160 3 14 14 70 25 125 12 55 24
114 26 130 7 40 11 60 13 60 1 0 3 9 5 20 1 11 5 31 8 45 3 14 8 43 12 65 4
22 10 49 12 60 3 11 9 40 13 65 5 25 14 65 20 90 6 25 11 52 12 60 0 8 6 42
14 75 7 33 15 74 17 90 3 17 8 41 11 55 3 14 8 39 11 55 3 17 8 41 11 55 29
142 44 219 48 240 2 14 7 32 10 40 3 8 7 32 10 52 3 21 10 57 15 80 6 24 12
57 15 73 14 75 19 99 47 235 17 80 32 154 33 165 2 11 18 92 35 180 18 88 34
171 36 185 2 14 4 25 5 25 2 0 6 18 14 60 8 45 25 127 31 155 3 14 8 39 10 55
3 17 8 37 11 46 2 10 7 30 9 45 2 16 7 40 10 54 3 14 7 34 9 45 2 11 6 34 10
50 6 29 10 50 22 110 3 17 7 35 8 40 2 6 6 31 10 57 8 45 25 59 24 20 0 -9 7
-48 16 -87 8 -38 18 -86 21 -105 3 -19 8 -42 10 -50 4 -15 13 -60 19 -95 2
-11 11 -54 19 -95 9 -41 18 -88 21 -105 2 -16 5 -30 6 -30 2 0 5 -14 24 -115
9 -47 21 -107 26 -135 6 -27 12 -59 14 -70 2 -11 12 -56 21 -100 9 -44 19 -91
21 -105 5 -33 6 -38 44 -220 17 -85 34 -168 36 -185 2 -16 9 -48 14 -70 8 -35
62 -299 74 -365 2 -14 14 -72 26 -130 12 -58 23 -117 25 -132 2 -15 6 -35 9
-45 3 -10 8 -31 11 -48 2 -16 7 -39 9 -50 13 -59 48 -233 51 -255 1 -14 8 -43
13 -65 6 -22 13 -53 16 -70 2 -16 9 -55 15 -85 6 -30 13 -64 15 -75 2 -11 13
-65 25 -120 11 -55 22 -111 25 -125 2 -14 18 -94 35 -179 17 -85 33 -166 36
-180 3 -14 7 -37 10 -51 8 -34 25 -122 25 -125 0 -2 45 -2 101 -2 55 1 103 -1
106 -6 2 -4 9 -4 15 -1 16 10 119 11 144 3 12 -4 25 -5 28 -2 9 9 176 10 208
2 15 -4 30 -4 32 -1 5 9 359 8 372 -1 6 -3 16 -2 23 2 7 5 26 7 42 5 16 -2 28
0 27 4 -1 4 1 18 5 32 5 22 38 188 51 260 2 14 11 57 19 95 9 39 18 84 20 100
3 17 10 50 16 75 5 25 13 61 16 80 3 19 8 42 10 50 2 8 7 31 10 50 3 19 8 42
10 50 2 8 7 29 10 45 6 37 10 59 31 160 10 44 18 87 19 95 1 8 7 40 13 70 13
60 20 91 27 130 2 14 14 70 25 125 39 184 39 184 45 225 3 19 21 109 40 200
19 91 37 179 40 195 7 42 13 74 19 93 3 9 7 35 11 57 3 22 10 56 15 75 5 19
11 46 14 60 2 14 7 41 11 60 3 19 7 42 9 50 1 8 6 31 11 50 4 19 9 46 11 60 1
14 3 25 4 25 2 0 9 31 26 120 3 17 10 50 15 75 6 25 13 61 16 80 3 19 7 44 8
55 2 11 4 21 5 23 3 3 5 11 14 62 10 53 10 54 31 150 9 41 18 87 20 102 2 15
6 35 9 45 3 10 8 34 11 53 3 19 10 51 15 70 5 19 11 51 14 70 3 19 17 91 31
160 14 69 28 139 31 155 2 17 7 37 9 45 2 8 7 29 9 45 3 17 14 73 25 125 11
52 22 106 25 120 2 14 16 84 31 155 14 72 28 140 31 152 2 13 6 35 9 50 2 16
14 73 25 128 12 55 23 112 25 128 2 15 6 31 9 35 2 4 7 28 11 52 3 25 8 53 11
62 8 28 15 62 19 93 2 17 9 53 15 80 7 28 13 59 15 70 4 19 9 45 20 100 3 14
7 35 9 48 2 12 9 43 15 70 6 26 14 64 17 83 3 20 7 44 9 53 27 128 34 160 38
186 3 17 10 50 16 75 5 25 12 61 16 80 3 19 10 55 15 80 5 25 12 56 15 70 2
14 14 70 25 125 11 55 23 116 26 135 3 19 7 39 7 45 3 13 -1022 14 -1031 0 -4
-5 -7 -14 -8 -20 -1 -5 -5 -28 -8 -50 -4 -22 -9 -52 -11 -66 -5 -30 -15 -93
-20 -129 -4 -37 -15 -103 -20 -130 -3 -14 -7 -38 -10 -55 -2 -16 -6 -46 -10
-65 -5 -35 -11 -69 -20 -132 -5 -40 -16 -106 -21 -133 -2 -10 -6 -37 -9 -60
-3 -22 -10 -65 -15 -95 -5 -30 -12 -73 -15 -95 -4 -22 -8 -51 -10 -64 -2 -13
-7 -45 -11 -70 -4 -25 -8 -53 -10 -63 -10 -60 -18 -114 -16 -120 1 -5 -1 -8
-6 -8 -4 0 -8 -17 -8 -38 -1 -33 -6 -68 -19 -142 -3 -14 -7 -43 -11 -65 -6
-42 -11 -77 -19 -122 -8 -50 -24 -157 -30 -198 -3 -22 -10 -61 -15 -88 -6 -26
-9 -51 -9 -55 1 -4 0 -9 -1 -12 -2 -5 -6 -32 -13 -85 -5 -35 -16 -107 -24
-150 -3 -16 -7 -43 -9 -60 -1 -16 -5 -39 -7 -50 -3 -11 -10 -56 -16 -100 -7
-44 -16 -102 -21 -130 -5 -27 -12 -68 -15 -90 -3 -23 -8 -52 -11 -65 -3 -14
-7 -45 -9 -70 -2 -25 -4 -45 -5 -45 -2 0 -9 -35 -14 -70 -3 -16 -7 -43 -10
-60 -2 -16 -8 -50 -11 -75 -4 -25 -9 -52 -10 -60 -2 -8 -6 -35 -9 -60 -3 -25
-8 -56 -11 -70 -3 -14 -8 -45 -11 -70 -3 -25 -8 -54 -10 -65 -3 -11 -7 -36 -9
-55 -3 -19 -8 -51 -12 -70 -3 -19 -7 -42 -8 -50 -26 -185 -35 -241 -41 -259
-2 -8 -7 -35 -10 -60 -2 -25 -6 -55 -8 -66 -2 -11 -8 -45 -12 -75 -9 -59 -10
-69 -14 -72 -1 -2 -3 -19 -5 -38 -4 -43 -34 -239 -40 -260 -3 -8 -7 -37 -9
-64 -3 -26 -8 -58 -12 -70 -4 -11 -7 -30 -8 -41 -1 -11 -9 -21 -18 -23 -15 -3
-18 4 -20 40 -1 40 -3 55 -8 68 -4 11 -10 47 -14 90 -2 25 -7 52 -10 60 -2 8
-7 35 -10 60 -3 25 -7 59 -10 75 -6 36 -23 145 -32 200 -9 65 -14 97 -25 156
-5 31 -11 74 -14 95 -2 22 -6 50 -9 64 -2 14 -10 59 -16 100 -6 41 -14 89 -17
105 -3 17 -7 41 -8 55 -2 14 -6 39 -8 55 -3 17 -8 53 -12 80 -4 28 -10 59 -12
70 -4 21 -6 34 -19 120 -4 28 -9 57 -10 65 -2 8 -6 37 -9 64 -4 27 -9 58 -12
70 -2 12 -6 35 -8 51 -3 26 -10 75 -20 140 -2 11 -6 29 -8 40 -3 11 -8 45 -12
75 -4 30 -9 62 -10 70 -2 8 -6 38 -9 65 -4 28 -9 57 -11 65 -3 8 -7 32 -9 52
-3 21 -7 53 -10 70 -3 18 -8 49 -11 68 -2 19 -7 49 -10 65 -3 17 -8 46 -11 65
-3 19 -8 49 -10 65 -4 36 -10 71 -29 195 -18 108 -22 138 -30 195 -4 22 -8 47
-10 55 -2 8 -7 38 -10 65 -4 28 -8 61 -11 75 -2 14 -7 41 -10 60 -3 19 -7 46
-10 60 -2 14 -7 45 -10 70 -10 83 -12 95 -18 110 -3 8 -7 38 -10 65 -3 28 -8
61 -10 75 -8 42 -18 103 -22 135 -6 49 -16 115 -29 190 -5 27 -20 124 -30 185
-2 14 -6 43 -10 65 -3 23 -7 50 -9 61 -2 12 -7 44 -11 72 -3 29 -10 65 -15 81
-4 16 -6 31 -4 34 3 2 0 24 -5 48 -10 48 -23 134 -25 162 0 9 -5 18 -11 18 -5
1 -252 2 -547 3 -363 1 -538 -2 -539 -9 0 -5 -2 -17 -4 -25 -10 -45 -16 -80
-21 -125 -7 -55 -12 -80 -14 -80 -1 0 -3 -11 -5 -25 -3 -35 -14 -110 -20 -140
-2 -13 -7 -42 -10 -65 -3 -22 -8 -53 -12 -70 -3 -16 -7 -39 -8 -50 -2 -19 -14
-100 -21 -140 -2 -10 -6 -37 -9 -60 -4 -22 -9 -53 -12 -70 -3 -16 -7 -41 -8
-55 -2 -14 -6 -38 -9 -55 -14 -88 -28 -174 -32 -205 -3 -19 -7 -46 -10 -60 -2
-14 -7 -41 -10 -60 -9 -60 -44 -284 -49 -310 -2 -14 -7 -47 -11 -75 -3 -27 -8
-59 -11 -70 -2 -11 -6 -33 -8 -50 -2 -16 -6 -43 -9 -60 -3 -16 -8 -48 -11 -70
-3 -22 -10 -62 -15 -90 -5 -27 -12 -72 -16 -100 -3 -27 -8 -63 -10 -80 -2 -16
-7 -38 -10 -47 -3 -10 -7 -35 -10 -56 -2 -20 -6 -50 -9 -67 -2 -16 -7 -48 -10
-70 -3 -22 -7 -51 -10 -65 -3 -14 -8 -41 -10 -60 -3 -19 -8 -51 -12 -70 -3
-19 -7 -42 -8 -50 -5 -38 -15 -107 -19 -125 -2 -11 -6 -41 -10 -66 -4 -25 -9
-57 -11 -70 -3 -13 -7 -40 -9 -59 -3 -19 -8 -46 -11 -60 -3 -14 -7 -43 -10
-65 -2 -22 -7 -51 -9 -65 -3 -14 -7 -41 -10 -60 -2 -19 -11 -75 -20 -125 -8
-49 -18 -109 -21 -132 -11 -80 -14 -98 -20 -123 -3 -14 -7 -43 -10 -65 -3 -22
-10 -69 -16 -105 -5 -36 -12 -78 -15 -95 -2 -16 -6 -41 -9 -55 -3 -14 -7 -41
-9 -60 -2 -19 -10 -66 -16 -105 -6 -38 -13 -83 -16 -100 -2 -16 -6 -41 -9 -55
-3 -14 -7 -43 -10 -65 -3 -22 -10 -65 -15 -95 -19 -108 -21 -126 -26 -170 -9
-83 -38 -80 -48 5 -3 28 -8 61 -10 75 -3 14 -7 43 -10 65 -3 22 -8 54 -11 70
-9 54 -16 94 -21 133 -2 20 -7 48 -9 62 -3 14 -8 41 -11 60 -9 61 -23 154 -29
195 -3 22 -8 52 -11 67 -3 15 -7 39 -9 55 -2 15 -6 42 -9 59 -3 17 -8 48 -11
70 -7 45 -14 96 -21 139 -2 17 -7 48 -10 70 -5 39 -8 57 -17 100 -4 18 -15 90
-23 150 -1 11 -3 20 -4 20 -1 0 -3 14 -5 30 -1 17 -6 48 -10 70 -4 22 -8 49
-10 60 -7 54 -22 146 -25 155 -1 3 -2 9 -1 13 1 5 -5 47 -14 95 -8 48 -17 107
-21 132 -3 25 -8 54 -9 65 -24 149 -37 230 -41 265 -3 19 -6 42 -9 50 -2 8 -7
38 -10 65 -4 28 -9 61 -11 75 -3 14 -7 39 -9 55 -2 17 -6 44 -9 60 -6 28 -13
78 -20 135 -2 14 -6 36 -9 50 -6 23 -10 54 -23 155 -3 22 -7 50 -9 63 -11 53
-14 71 -25 147 -6 44 -14 94 -17 110 -13 77 -28 175 -38 250 -7 52 -15 98 -26
160 -6 33 -13 74 -14 90 -5 41 -14 105 -20 135 -3 14 -8 43 -11 65 -8 62 -12
87 -19 125 -3 19 -8 49 -10 65 -2 17 -6 41 -9 55 -2 14 -7 47 -11 73 -4 27 -8
57 -10 67 -3 17 -12 71 -19 120 -2 14 -8 48 -12 75 -4 28 -8 57 -9 65 0 13
-68 15 -548 15 -302 0 -550 -2 -552 -5z"/>
<path d="M10772 19870 l3 -3145 25 -3 c14 -1 39 -2 55 -1 30 1 117 1 190 0 22
0 76 0 120 0 44 1 98 1 120 0 47 -1 324 -1 375 0 48 1 111 1 135 -1 11 0 40 0
65 0 l45 1 0 3147 0 3148 -568 -1 -567 0 2 -3145z"/>
<path d="M24462 23010 c-4 -3 -7 -1419 -7 -3146 l0 -3142 163 2 c90 0 166 -2
169 -7 2 -4 9 -4 15 -1 15 10 139 11 145 1 2 -4 9 -4 15 -1 16 10 119 11 144
3 12 -4 25 -5 28 -2 9 9 175 10 208 2 14 -4 29 -5 32 -1 4 3 54 6 112 6 l107
1 -1 1450 c0 798 4 1452 8 1455 5 3 271 5 592 4 l583 -1 2 -1424 c1 -783 2
-1439 3 -1456 0 -31 2 -33 33 -30 17 2 42 0 54 -4 12 -5 24 -5 27 -1 2 4 44 6
93 5 108 -3 131 -3 163 0 14 2 33 0 42 -5 9 -4 19 -5 21 -1 3 5 45 7 94 6 108
-3 131 -3 163 0 14 2 33 0 42 -5 9 -4 19 -5 21 -1 4 7 115 9 227 4 19 -1 62 0
95 1 l60 3 0 3138 c0 1727 -2 3142 -5 3146 -3 4 -258 7 -567 7 -498 0 -563 -2
-563 -16 -4 -192 0 -2412 4 -2419 4 -5 2 -12 -3 -16 -5 -3 -8 -14 -6 -25 3
-18 -5 -24 -27 -21 -13 1 -206 3 -258 2 -26 -1 -132 0 -139 1 -3 0 -10 0 -16
-1 -12 -2 -290 -2 -302 0 -4 1 -12 0 -18 -1 -5 -1 -41 -1 -80 0 -38 1 -77 1
-85 1 -56 -2 -134 0 -141 5 -4 2 -10 1 -12 -3 -3 -5 -27 -6 -55 -5 l-50 4 2
1244 c0 684 -1 1245 -4 1245 -16 5 -1122 4 -1128 -1z"/>
<path d="M29854 23005 c-2 -5 -5 -21 -8 -35 -2 -14 -7 -36 -10 -50 -3 -14 -8
-36 -10 -50 -2 -14 -9 -47 -16 -75 -6 -27 -13 -61 -15 -75 -2 -14 -11 -59 -20
-100 -9 -41 -19 -88 -22 -105 -2 -16 -11 -59 -19 -95 -8 -36 -17 -81 -20 -100
-3 -19 -7 -42 -10 -50 -5 -14 -8 -26 -18 -85 -2 -11 -7 -31 -10 -45 -5 -23 -8
-38 -23 -115 -8 -47 -11 -60 -13 -60 -1 0 -3 -9 -5 -20 -1 -11 -5 -33 -9 -50
-3 -16 -8 -41 -11 -55 -9 -48 -74 -361 -82 -395 -2 -11 -6 -29 -8 -40 -2 -11
-6 -33 -10 -50 -3 -16 -15 -75 -26 -130 -12 -55 -23 -109 -25 -120 -2 -11 -6
-31 -9 -45 -3 -14 -7 -36 -10 -50 -3 -14 -8 -36 -11 -50 -3 -14 -16 -78 -30
-143 -13 -65 -22 -122 -19 -127 3 -5 1 -10 -4 -12 -5 -1 -11 -21 -15 -43 -3
-22 -7 -47 -9 -55 -20 -91 -29 -134 -32 -157 -2 -16 -4 -29 -6 -30 -2 -3 -3
-7 -12 -53 -4 -19 -9 -46 -12 -60 -3 -14 -8 -38 -11 -55 -3 -16 -10 -50 -15
-75 -6 -25 -13 -55 -15 -67 -2 -13 -6 -35 -10 -50 -3 -16 -7 -41 -10 -58 -3
-16 -7 -37 -10 -45 -3 -8 -8 -26 -10 -40 -3 -14 -21 -104 -40 -200 -47 -226
-43 -211 -49 -242 -3 -15 -12 -58 -20 -95 -9 -37 -17 -79 -19 -93 -2 -14 -18
-92 -35 -175 -36 -170 -51 -241 -57 -270 -3 -18 -49 -240 -59 -290 -3 -11 -8
-33 -11 -50 -4 -16 -8 -41 -10 -55 -1 -14 -3 -25 -4 -25 -2 0 -5 -14 -14 -60
-12 -59 -16 -80 -21 -105 -3 -14 -10 -47 -15 -75 -6 -27 -13 -61 -16 -75 -3
-14 -7 -36 -10 -50 -4 -21 -11 -57 -20 -95 -1 -5 -5 -26 -9 -45 -3 -19 -11
-55 -16 -80 -6 -25 -13 -56 -15 -70 -2 -14 -7 -36 -10 -50 -3 -14 -8 -36 -10
-50 -3 -14 -11 -54 -19 -90 -8 -36 -16 -78 -19 -95 -3 -16 -8 -41 -11 -55 -3
-14 -8 -36 -11 -50 -12 -60 -85 -419 -94 -460 -5 -25 -12 -58 -15 -75 -18 -98
-18 -94 1 -91 11 2 29 0 40 -5 12 -4 25 -5 28 -2 9 9 176 10 208 2 15 -4 30
-4 32 -1 3 6 362 7 376 2 3 -1 10 -1 15 0 26 6 137 4 142 -3 2 -4 12 -3 21 1
9 4 52 7 94 6 87 -3 81 -8 93 81 3 22 10 67 15 100 5 33 12 80 15 105 10 73
24 164 30 200 2 8 6 42 10 75 9 69 11 88 18 130 3 17 8 53 12 80 3 28 8 57 10
65 2 8 6 38 10 65 3 28 8 64 11 81 3 17 6 46 9 65 2 19 6 52 10 74 16 99 27
173 31 210 2 22 6 49 8 60 2 11 7 38 10 60 l7 40 537 -1 c295 -1 539 -2 542
-3 3 0 7 -13 8 -28 1 -16 6 -53 12 -83 5 -30 12 -75 15 -100 8 -61 30 -206 40
-260 2 -14 7 -47 11 -75 3 -27 8 -60 9 -72 4 -28 15 -98 22 -138 3 -16 6 -41
8 -55 2 -14 8 -54 14 -90 6 -36 13 -83 16 -105 2 -22 7 -51 9 -65 3 -14 8 -47
11 -75 10 -73 12 -85 20 -135 10 -63 13 -78 20 -140 4 -30 13 -58 19 -62 6 -4
51 -6 99 -5 49 1 91 -1 94 -5 2 -5 9 -5 15 -2 16 10 119 11 144 3 12 -4 25 -5
28 -2 9 9 176 10 208 2 15 -4 30 -4 32 -1 5 9 359 8 372 -1 6 -3 16 -2 23 2 7
5 27 7 44 4 48 -5 58 2 47 34 -5 15 -11 42 -14 58 -8 51 -16 89 -23 115 -3 14
-7 27 -8 30 0 3 -5 28 -10 55 -5 28 -9 52 -10 55 -6 22 -16 71 -20 100 -3 19
-8 43 -11 52 -3 9 -7 27 -9 40 -3 13 -7 34 -10 48 -6 26 -12 57 -20 100 -3 14
-7 36 -10 50 -3 14 -8 36 -11 50 -6 33 -13 69 -20 100 -9 43 -35 174 -40 200
-3 14 -9 41 -14 60 -5 19 -12 55 -15 80 -4 24 -8 47 -10 51 -2 3 -7 21 -10 40
-3 19 -10 52 -15 74 -5 22 -11 54 -14 70 -7 35 -9 45 -31 150 -9 44 -19 93
-22 109 -4 27 -27 134 -38 181 -3 11 -7 35 -10 54 -2 18 -7 41 -9 50 -5 16
-14 58 -21 96 -2 11 -11 54 -19 95 -9 41 -18 86 -21 100 -3 14 -8 36 -11 50
-3 14 -8 36 -10 50 -2 14 -9 45 -14 70 -5 25 -12 60 -15 79 -3 19 -8 37 -10
41 -3 4 -7 22 -9 41 -3 19 -12 66 -21 104 -8 39 -17 84 -20 100 -2 17 -6 39
-9 50 -19 87 -38 174 -41 195 -2 14 -15 77 -28 140 -14 63 -28 129 -31 145 -3
17 -7 41 -10 55 -3 14 -10 48 -16 75 -6 28 -12 60 -15 73 -3 12 -7 32 -9 45
-3 12 -16 78 -30 147 -14 69 -27 136 -30 150 -2 14 -7 32 -10 40 -3 8 -8 29
-10 45 -5 34 -34 181 -66 325 -11 52 -23 111 -26 130 -2 19 -7 42 -9 50 -3 8
-7 33 -11 55 -3 22 -8 43 -10 46 -2 3 -6 21 -9 40 -3 19 -8 41 -10 49 -2 8 -7
29 -10 45 -2 17 -7 41 -10 55 -7 30 -32 155 -39 192 -2 15 -7 31 -10 36 -3 4
-7 28 -10 53 -3 24 -10 59 -15 77 -5 18 -10 33 -9 35 0 5 -17 93 -27 140 -3
12 -7 33 -10 47 -12 61 -15 78 -25 120 -5 25 -12 56 -14 70 -3 14 -14 72 -26
130 -28 139 -29 140 -36 175 -8 33 -14 70 -18 100 -2 11 -8 38 -14 60 -6 22
-14 57 -18 79 -3 21 -8 48 -11 60 -2 11 -7 35 -9 53 -2 18 -8 43 -13 55 l-8
23 -558 0 c-368 0 -559 -3 -561 -10z m558 -1701 c9 -65 17 -122 23 -153 8 -49
18 -116 21 -141 1 -14 5 -36 7 -50 3 -14 8 -43 11 -65 3 -22 8 -56 11 -75 3
-19 10 -66 16 -105 6 -38 12 -81 15 -95 2 -14 6 -45 10 -70 3 -25 7 -52 9 -60
2 -8 7 -37 10 -65 6 -50 8 -57 19 -125 8 -47 16 -106 22 -155 3 -22 7 -49 9
-60 12 -57 15 -73 20 -112 3 -24 7 -62 10 -85 3 -24 8 -54 11 -68 11 -60 16
-97 19 -130 2 -19 4 -35 6 -35 1 0 2 -11 4 -25 1 -14 4 -38 8 -55 4 -16 9 -48
12 -70 3 -22 8 -51 10 -65 2 -14 6 -45 9 -70 3 -25 8 -56 11 -70 3 -14 8 -45
11 -70 7 -64 12 -88 18 -99 3 -5 -5 -11 -19 -13 -14 -3 -25 -1 -25 4 0 5 -5 6
-12 2 -9 -6 -600 -10 -652 -5 -7 1 -3 57 9 122 3 14 7 41 9 60 3 19 5 34 6 34
1 0 3 9 4 20 2 11 6 43 11 70 4 28 9 61 10 75 2 14 8 57 15 95 6 39 14 88 16
109 3 22 7 43 10 47 3 5 7 30 9 56 3 26 6 57 9 68 6 28 28 176 31 200 1 18 10
68 21 130 2 10 6 37 9 60 3 22 10 65 15 95 10 59 21 131 25 167 2 12 6 34 9
50 3 15 8 48 12 73 11 79 12 84 19 120 3 19 8 49 10 65 2 17 6 44 9 60 3 17 8
50 11 75 3 25 7 52 10 60 2 8 7 35 10 60 3 25 7 56 9 70 3 14 9 59 16 100 6
41 13 81 16 88 9 28 29 3 36 -44z"/>
<path d="M32919 23000 c0 -8 -1 -1423 -2 -3143 -2 -3120 -2 -3128 18 -3132 11
-2 53 -3 93 -2 41 1 76 -1 79 -5 2 -5 12 -5 21 0 22 10 123 8 140 -2 7 -4 18
-4 25 1 7 4 50 7 97 6 107 -3 129 -3 160 0 14 2 33 0 42 -5 9 -4 19 -5 21 -1
3 5 45 7 94 6 97 -3 125 -3 196 0 26 1 47 -2 47 -7 0 -5 6 -4 13 1 6 5 23 8
37 7 59 -6 55 -102 54 1181 -1 921 2 1181 12 1200 6 13 10 26 6 29 -3 3 10 6
29 6 31 0 36 -4 58 -52 13 -29 42 -91 65 -138 22 -47 41 -91 42 -98 2 -8 9
-21 18 -30 8 -10 15 -20 16 -24 1 -8 59 -134 132 -288 49 -102 104 -218 175
-370 25 -52 66 -140 93 -195 185 -387 241 -508 243 -520 1 -5 5 -12 8 -15 4
-3 21 -36 39 -75 36 -77 85 -180 182 -385 36 -74 73 -154 83 -177 10 -24 21
-44 24 -44 3 -1 17 -2 31 -3 14 -1 30 -5 37 -9 6 -4 14 -3 18 2 3 7 15 7 29 1
13 -5 26 -7 28 -4 9 8 74 10 90 2 9 -4 19 -5 21 -1 3 5 45 7 94 6 96 -3 103
-3 243 0 52 2 105 -1 116 -5 12 -3 25 -4 28 -1 9 9 176 10 208 2 15 -4 30 -4
32 -1 2 4 74 6 160 6 l156 -2 -61 117 c-34 64 -69 130 -79 146 -18 32 -115
215 -172 325 -18 36 -35 67 -38 70 -3 3 -19 33 -36 66 -18 34 -43 82 -57 107
-14 25 -24 47 -21 49 2 3 -5 13 -16 23 -11 10 -20 26 -20 36 0 9 -3 19 -7 21
-5 2 -19 26 -33 53 -14 28 -41 79 -61 115 -20 36 -64 119 -99 185 -35 66 -78
147 -95 180 -31 57 -62 115 -163 305 -24 47 -62 117 -82 155 -107 199 -160
299 -244 457 -95 180 -129 244 -137 253 -5 5 -9 17 -9 26 0 10 -4 19 -8 21 -5
2 -26 37 -47 78 -21 41 -45 83 -53 93 -8 9 -12 17 -7 17 4 0 3 6 -2 13 -6 6
-29 48 -53 92 -23 44 -59 109 -78 145 -58 106 -62 114 -62 127 0 6 -4 13 -8
15 -4 2 -30 45 -56 97 l-49 94 19 36 c10 20 31 57 46 84 15 26 24 47 20 47 -4
0 -2 4 3 8 6 4 17 21 26 37 21 37 94 175 126 235 13 25 42 79 65 120 22 41 56
106 77 143 20 38 45 85 56 105 126 232 214 395 233 432 12 25 37 72 55 105
101 184 242 447 299 555 16 30 43 80 59 110 17 30 44 81 60 112 17 32 34 60
39 63 5 3 11 19 15 35 4 17 10 30 13 30 4 0 16 19 26 43 11 23 27 50 35 60 8
9 10 17 6 17 -4 0 -2 8 6 18 14 17 22 30 92 162 19 36 57 108 85 160 l51 96
-529 -1 -528 0 -38 -75 c-21 -41 -39 -77 -39 -80 -13 -39 -29 -70 -36 -70 -5
0 -8 -3 -7 -7 2 -5 -27 -69 -64 -143 -162 -328 -358 -731 -358 -735 0 -2 -14
-28 -31 -57 -17 -29 -31 -54 -31 -55 3 -9 -22 -63 -29 -63 -5 0 -9 -6 -9 -14
0 -7 -39 -92 -86 -187 -47 -96 -100 -203 -117 -239 -18 -36 -36 -68 -40 -71
-5 -3 -8 -10 -8 -15 0 -9 -161 -345 -179 -374 -6 -8 -14 -25 -20 -37 -5 -13
-13 -23 -18 -23 -5 0 -9 477 -10 1098 0 603 -1 1108 -1 1122 l-1 26 -565 -1
c-497 0 -565 -2 -566 -15z"/>
<path d="M37125 23010 l-60 -5 0 -3137 c0 -1726 2 -3139 5 -3139 3 -1 643 -2
1423 -3 l1417 -1 1 35 c2 171 -1 853 -4 856 -2 2 -386 5 -852 7 l-849 2 -7 28
c-4 15 -4 27 0 27 7 0 4 86 -4 108 -2 6 -1 12 3 12 8 0 6 155 -2 176 -3 7 -2
15 2 18 8 5 6 91 -3 114 -2 6 -1 12 3 12 8 0 6 155 -2 176 -3 7 -2 15 2 18 8
5 6 91 -3 114 -2 6 -1 12 3 12 8 0 6 155 -2 176 -3 7 -2 15 2 18 8 5 6 91 -3
114 -2 6 -1 12 3 12 8 0 6 155 -2 176 -3 7 -2 15 2 18 8 5 6 91 -3 114 -2 6
-1 12 3 12 8 0 6 155 -2 176 -3 7 -2 15 2 18 8 5 6 91 -3 114 -2 6 -1 12 3 12
4 0 6 51 5 114 l-1 113 551 1 c304 0 559 1 568 1 15 1 17 40 15 449 l-1 447
-565 0 -565 0 -2 140 c-1 77 -4 148 -7 158 -2 9 -1 17 2 17 8 0 6 165 -2 185
-2 7 -2 16 1 19 3 3 5 41 4 83 -1 43 -2 85 -2 93 1 8 1 44 0 80 0 36 0 71 0
78 0 6 1 36 2 65 1 28 0 57 -1 62 -1 6 -2 15 -1 20 5 26 1 257 -4 266 -4 5 -3
9 2 9 8 0 8 162 -1 185 -2 7 -2 16 2 19 3 4 5 30 3 59 l-2 52 778 0 c428 0
785 1 793 3 14 3 16 55 16 448 l0 444 -25 1 c-126 4 -2590 3 -2636 -1z"/>
<path d="M2 22567 l3 -442 530 -2 c292 -1 548 -2 571 -2 l40 -1 0 -2697 0
-2698 95 -1 c53 0 103 -3 112 -7 9 -3 18 -3 21 1 3 6 361 8 376 2 3 -1 10 -1
15 0 26 6 137 4 142 -3 2 -4 9 -4 15 -1 16 10 119 11 145 2 12 -4 24 -4 27 0
2 4 45 6 95 6 50 -1 91 1 92 5 0 3 1 1218 1 2699 l1 2692 36 1 c70 1 286 0
291 -2 3 -1 10 0 15 1 13 2 207 2 220 0 6 -1 15 -1 20 0 13 2 207 2 220 0 6
-1 15 -1 20 0 23 4 216 3 221 -2 3 -3 21 -2 40 2 19 4 43 6 53 3 17 -4 18 15
17 439 l-1 443 -1718 2 -1717 1 2 -441z"/>
<path d="M16427 23002 c-2 -4 -3 -203 -3 -442 l1 -435 573 0 572 0 1 -25 c0
-14 0 -1229 1 -2701 l0 -2675 32 1 c17 0 43 -2 58 -6 15 -4 30 -4 32 -1 4 6
356 8 381 2 6 -1 12 -1 15 0 14 6 189 5 212 -1 15 -4 30 -4 32 -1 2 4 87 7
188 6 l184 -1 0 2694 c-1 1482 3 2697 7 2700 8 5 189 7 212 3 6 -2 15 -1 20 0
13 2 207 2 220 0 6 -1 15 -1 20 0 13 2 207 2 220 0 6 -1 15 -1 20 0 12 2 206
2 220 0 6 -1 21 -1 35 0 14 2 60 3 104 4 l79 1 -1 420 c0 231 -1 430 -1 442
l-1 22 -1715 -1 c-943 0 -1716 -3 -1718 -6z"/>
</g>
</svg>
