<svg fill="none" stroke-width="0px" viewBox="0 0 21 21 " xmlns="http://www.w3.org/2000/svg" class="css-e7qr30"><path fill-rule="evenodd" clip-rule="evenodd" fill="#202020" stroke="#202020" d="M1.14209 4.05664C1.14209 3.7805 1.37038 3.55664 1.652 3.55664H12.8837C13.1653 3.55664 13.3936 3.7805 13.3936 4.05664V7.25551L15.7837 7.2555C15.9887 7.2555 16.1738 7.37596 16.2535 7.56124L17.6694 10.8539H18.7026C18.8684 10.8539 19.1387 10.8712 19.3813 11.0098C19.6708 11.1752 19.8455 11.4685 19.8455 11.8462V15.574C19.8455 15.8501 19.6172 16.074 19.3356 16.074H18.6092C18.5055 17.2352 17.5278 18.1592 16.3186 18.1592C15.1093 18.1592 14.1317 17.2352 14.028 16.074L7.37646 16.074C7.27278 17.2352 6.29511 18.1592 5.08587 18.1592C3.87663 18.1592 2.89896 17.2352 2.79528 16.074H1.652C1.37038 16.074 1.14209 15.8501 1.14209 15.574V4.05664ZM14.1618 15.074C14.4853 14.2053 15.3235 13.5797 16.3186 13.5797C17.3136 13.5797 18.1519 14.2053 18.4754 15.074H18.8257V11.8628C18.7934 11.8571 18.7521 11.8539 18.7026 11.8539L13.3936 11.8539V15.074H14.1618ZM12.3738 15.074L7.24267 15.074C6.91918 14.2053 6.08092 13.5797 5.08587 13.5797C4.09082 13.5797 3.25256 14.2053 2.92907 15.074H2.1619V4.55664L12.3738 4.55664V15.074ZM13.3936 10.8539L16.5626 10.8539L15.4453 8.25551L13.3936 8.25551V10.8539ZM5.08587 14.5797C4.3884 14.5797 3.806 15.1478 3.806 15.8694C3.806 16.591 4.3884 17.1592 5.08587 17.1592C5.78334 17.1592 6.36574 16.591 6.36574 15.8694C6.36574 15.1478 5.78334 14.5797 5.08587 14.5797ZM15.0387 15.8694C15.0387 15.1478 15.6211 14.5797 16.3186 14.5797C17.016 14.5797 17.5984 15.1478 17.5984 15.8694C17.5984 16.591 17.016 17.1592 16.3186 17.1592C15.6211 17.1592 15.0387 16.591 15.0387 15.8694Z" class="css-e2i13a"></path></svg>
