<svg fill="none" stroke-width="0px" viewBox="0 0 17 21 " xmlns="http://www.w3.org/2000/svg" class="css-e7qr30"><path fill-rule="evenodd" clip-rule="evenodd" fill="#202020" stroke="#202020" d="M4.64909 2.98728C4.50609 2.84428 4.29103 2.8015 4.10419 2.8789C3.91736 2.95629 3.79553 3.1386 3.79553 3.34083L3.79541 8.6147L3.79566 8.62586C3.8413 10.6704 4.48171 12.6573 5.63859 14.3437C6.79547 16.0301 8.41868 17.3428 10.3097 18.1214C10.4317 18.1716 10.5685 18.1716 10.6904 18.1214C12.5815 17.3428 14.2047 16.0301 15.3616 14.3437C16.5184 12.6573 17.159 10.6704 17.2046 8.62586V3.34083C17.2046 3.1386 17.0828 2.95629 16.896 2.8789C16.7091 2.8015 16.4941 2.84428 16.3511 2.98728C15.2545 4.08389 14.1913 4.35766 13.2764 4.24928C12.336 4.13789 11.4796 3.61325 10.8536 2.98728C10.6584 2.79202 10.3418 2.79202 10.1465 2.98728C9.48656 3.64725 8.62067 4.15934 7.68566 4.25749C6.77351 4.35324 5.72499 4.06318 4.64909 2.98728ZM4.79553 8.60905V4.417C5.7965 5.11927 6.82056 5.35379 7.79006 5.25202C8.83752 5.14207 9.7697 4.64536 10.5005 4.02097C11.2027 4.61863 12.1185 5.11911 13.1587 5.24233C14.1361 5.35811 15.1797 5.13525 16.2046 4.41676V8.60902C16.1623 10.4573 15.5829 12.2534 14.537 13.778C13.529 15.2472 12.13 16.4031 10.5001 17.1159C8.87017 16.4031 7.47112 15.2472 6.4632 13.778C5.4173 12.2534 4.83786 10.4574 4.79553 8.60905ZM13.0043 9.41912C13.198 9.22232 13.1955 8.90575 12.9988 8.71203C12.802 8.51831 12.4854 8.52081 12.2917 8.7176L9.82091 11.2276L8.70061 10.1412C8.50237 9.94899 8.18582 9.95386 7.99359 10.1521C7.80135 10.3503 7.80622 10.6669 8.00447 10.8591L9.48103 12.2909C9.67822 12.4822 9.99274 12.4785 10.1854 12.2828L13.0043 9.41912Z" class="css-e2i13a"></path></svg>