<svg class="dynamic-fill css-15ozls7" icon="logo" viewBox="0 0 125 20" xmlns="http://www.w3.org/2000/svg"><path fill="#202020" d="M44.8527 0C45.0391 0.00495761 45.2255 0.0099152 45.4079 0.024788C45.5823 0.0366863 45.7577 0.0555253 45.9311 0.0832879C46.0994 0.110059 46.2648 0.141788 46.4322 0.180457C46.5905 0.218135 46.7478 0.261762 46.9032 0.31233C47.0515 0.36488 47.2018 0.418423 47.3452 0.48188C47.4845 0.542363 47.6298 0.608795 47.7631 0.684151C47.8974 0.756532 48.0247 0.838828 48.1509 0.924099C48.2752 1.01036 48.3925 1.10059 48.5087 1.19875C48.625 1.29295 48.7312 1.39507 48.8364 1.50315C48.9357 1.60726 49.0279 1.71732 49.1181 1.83233C49.2053 1.94537 49.2844 2.06237 49.3596 2.18532C49.4328 2.30826 49.4989 2.43716 49.558 2.56705C49.6192 2.69793 49.6713 2.83278 49.7154 2.96862C49.7625 3.11041 49.7986 3.25319 49.8326 3.39894C49.8637 3.54965 49.8868 3.70234 49.9018 3.85702C49.9198 4.01467 49.9248 4.17431 49.9288 4.33295V5.69828L46.4362 5.61103V4.89515C46.4301 4.73353 46.4191 4.57191 46.3981 4.41029C46.383 4.26751 46.351 4.12275 46.3099 3.98493C46.2718 3.86198 46.2237 3.74002 46.1636 3.62501C46.1044 3.51792 46.0423 3.4158 45.9651 3.32358C45.892 3.23435 45.8118 3.15602 45.7226 3.08463C45.6424 3.01919 45.5512 2.95969 45.456 2.9121C45.3648 2.86847 45.2686 2.83377 45.1684 2.81295C45.0631 2.79213 44.9599 2.78221 44.8507 2.77626C44.7414 2.78221 44.6282 2.79014 44.5179 2.807C44.4167 2.82584 44.3195 2.85063 44.2233 2.88831C44.1271 2.92499 44.0379 2.9706 43.9537 3.02514C43.8705 3.07769 43.7923 3.14114 43.7202 3.20956C43.647 3.27797 43.5819 3.35333 43.5238 3.43563C43.4706 3.51495 43.4245 3.6022 43.3855 3.69144C43.3454 3.78464 43.3163 3.88479 43.2973 3.98493C43.2802 4.09201 43.2702 4.20108 43.2632 4.31015C43.2702 4.50647 43.2792 4.70775 43.3033 4.90308C43.3343 5.09841 43.3854 5.28977 43.4566 5.4742C43.4927 5.56938 43.5358 5.66655 43.5839 5.75876C43.634 5.86188 43.6911 5.96103 43.7573 6.05919C43.8244 6.16826 43.9016 6.27535 43.9838 6.37747C44.07 6.48753 44.1612 6.59462 44.2534 6.7017L47.7771 10.6886C47.9475 10.875 48.1169 11.0614 48.2792 11.2538C48.4295 11.4323 48.5809 11.6206 48.7202 11.81C48.8535 11.9895 48.9828 12.1699 49.106 12.3573C49.2243 12.5358 49.3325 12.7123 49.4348 12.8997C49.533 13.0851 49.6212 13.2795 49.6953 13.4738C49.7725 13.684 49.8356 13.9021 49.8837 14.1193C49.9369 14.3592 49.9749 14.6022 50 14.8431C50.021 15.1088 50.0301 15.3755 50.0411 15.6433C50.0281 15.8148 50.021 15.9853 50.003 16.1588C49.982 16.3185 49.9579 16.4781 49.9218 16.6387C49.8868 16.7904 49.8447 16.9412 49.7956 17.0889C49.7464 17.2287 49.6883 17.3715 49.6242 17.5043C49.564 17.6412 49.4879 17.7701 49.4087 17.898C49.3305 18.0189 49.2463 18.1399 49.1571 18.2529C49.0629 18.368 48.9617 18.477 48.8535 18.5791C48.7422 18.6852 48.628 18.7824 48.5037 18.8766C48.3794 18.9688 48.2542 19.0541 48.1229 19.1354C47.9916 19.2217 47.8573 19.294 47.721 19.3664C47.5837 19.4358 47.4394 19.5013 47.2981 19.5588C47.1507 19.6163 47.0014 19.6678 46.8531 19.7164C46.6987 19.763 46.5404 19.8057 46.3861 19.8404C46.2247 19.878 46.0603 19.9058 45.897 19.9296C45.7276 19.9524 45.5582 19.9703 45.3869 19.9802C45.2075 19.9931 45.0301 19.997 44.8537 20C44.6753 19.997 44.4979 19.9931 44.3195 19.9802C44.1481 19.9703 43.9788 19.9504 43.8064 19.9256C43.644 19.9008 43.4797 19.8731 43.3203 19.8374C43.164 19.8017 43.0056 19.761 42.8553 19.7134C42.7019 19.6649 42.5566 19.6093 42.4083 19.5498C42.268 19.4933 42.1307 19.4299 41.9934 19.3565C41.8591 19.2871 41.7268 19.2088 41.6005 19.1294C41.4712 19.0481 41.347 18.9589 41.2267 18.8627C41.1054 18.7725 40.9962 18.6704 40.888 18.5663C40.7857 18.4631 40.6825 18.357 40.5913 18.242C40.5011 18.127 40.4169 18.011 40.3408 17.8821C40.2636 17.7582 40.1944 17.6273 40.1353 17.4944C40.0702 17.3576 40.016 17.2188 39.9689 17.077C39.9198 16.9283 39.8787 16.7795 39.8457 16.6298C39.8116 16.4741 39.7845 16.3135 39.7665 16.1549C39.7505 15.9833 39.7394 15.8128 39.7314 15.6423V13.6176H43.2652V15.4261C43.2732 15.5659 43.2782 15.7097 43.3003 15.8475C43.3193 15.9695 43.3484 16.0914 43.3875 16.2084C43.4255 16.3165 43.4686 16.4216 43.5258 16.5168C43.5819 16.608 43.647 16.6913 43.7222 16.7676C43.7943 16.839 43.8705 16.9025 43.9567 16.961C44.0409 17.0145 44.1291 17.0641 44.2253 17.0998C44.3205 17.1375 44.4197 17.1642 44.5209 17.1811C44.6312 17.198 44.7444 17.2029 44.8537 17.2079C44.9629 17.2009 45.0692 17.195 45.1764 17.1752C45.2756 17.1583 45.3748 17.1305 45.471 17.0919C45.5652 17.0532 45.6534 17.0026 45.7366 16.9471C45.8238 16.8856 45.902 16.8212 45.9741 16.7468C46.0493 16.6705 46.1135 16.5852 46.1716 16.494C46.2287 16.3958 46.2728 16.2937 46.3109 16.1886C46.353 16.0716 46.385 15.9506 46.4001 15.8316C46.4221 15.6948 46.4322 15.56 46.4382 15.4261C46.4362 15.3012 46.4322 15.1772 46.4161 15.0503C46.4051 14.9313 46.3881 14.8133 46.359 14.6914C46.3379 14.5793 46.3059 14.4683 46.2668 14.3572C46.2287 14.2442 46.1856 14.1361 46.1375 14.0291C46.0383 13.8109 45.913 13.5997 45.7727 13.4014C45.6204 13.1843 45.449 12.983 45.2776 12.7768L42.3432 9.8012C42.1267 9.55729 41.9072 9.31932 41.6977 9.07144C41.5103 8.8533 41.3269 8.62922 41.1485 8.40216C40.9912 8.20485 40.8368 8.00357 40.6895 7.80031C40.5642 7.61985 40.444 7.43939 40.3287 7.25299C40.2756 7.16474 40.2265 7.07749 40.1784 6.9823C40.1303 6.88712 40.0902 6.78598 40.0531 6.68683C40.013 6.57875 39.9759 6.46968 39.9419 6.36161C39.9078 6.24659 39.8817 6.1286 39.8567 6.01259C39.8306 5.88568 39.8086 5.75876 39.7895 5.63086C39.7675 5.49799 39.7535 5.36017 39.7384 5.22632C39.7264 5.08155 39.7204 4.93778 39.7174 4.79599C39.7124 4.64033 39.7114 4.48565 39.7094 4.33196C39.7174 4.16935 39.7224 4.00972 39.7384 3.84612C39.7545 3.69144 39.7795 3.53874 39.8126 3.38407C39.8427 3.2393 39.8817 3.09355 39.9278 2.95077C39.9719 2.81295 40.0241 2.67513 40.0842 2.54226C40.1463 2.41237 40.2125 2.28348 40.2876 2.15954C40.3628 2.03758 40.445 1.92157 40.5312 1.80556C40.6214 1.69253 40.7156 1.58346 40.8188 1.47737C40.923 1.36929 41.0333 1.26915 41.1465 1.17694C41.2658 1.07977 41.3881 0.991523 41.5133 0.906252C41.6406 0.822964 41.7729 0.743642 41.9072 0.670269C42.0435 0.596897 42.1838 0.530465 42.3291 0.469982C42.4744 0.409499 42.6238 0.35199 42.7741 0.305389C42.9325 0.255813 43.0908 0.213177 43.2542 0.177483C43.4215 0.138813 43.5889 0.110059 43.7593 0.0832879C43.9357 0.0555253 44.113 0.0366863 44.2924 0.024788C44.4799 0.0099152 44.6673 0.00396609 44.8527 0ZM69.2724 0C69.4598 0.00495761 69.6452 0.00892368 69.8286 0.024788C70.002 0.0356948 70.1764 0.0555253 70.3508 0.0832879C70.5201 0.109067 70.6865 0.141788 70.8529 0.180457C71.0132 0.218135 71.1666 0.261762 71.3239 0.31233C71.4712 0.36488 71.6216 0.418423 71.7639 0.48188C71.9062 0.541371 72.0505 0.607803 72.1848 0.684151C72.3171 0.75554 72.4454 0.838828 72.5717 0.923107C72.6969 1.00937 72.8142 1.10059 72.9305 1.19776C73.0457 1.29295 73.1509 1.39507 73.2552 1.50216C73.3554 1.60627 73.4496 1.71633 73.5388 1.83233C73.625 1.94438 73.7062 2.06138 73.7803 2.18532C73.8545 2.30826 73.9176 2.43617 73.9747 2.56606C74.0399 2.69694 74.092 2.83179 74.1371 2.96763C74.1822 3.10941 74.2203 3.25219 74.2514 3.39795C74.2844 3.54965 74.3075 3.70135 74.3235 3.85702C74.3396 4.01467 74.3436 4.17431 74.3486 4.33295V5.69828L70.8569 5.61103V4.89416C70.8489 4.73353 70.8429 4.57092 70.8208 4.4093C70.8028 4.26652 70.7727 4.12275 70.7296 3.98493C70.6915 3.86198 70.6454 3.73903 70.5863 3.62401C70.5272 3.51792 70.464 3.41579 70.3848 3.32259C70.3107 3.23435 70.2355 3.15602 70.1483 3.08363C70.0651 3.01819 69.9749 2.95969 69.8767 2.9121C69.7855 2.86847 69.6883 2.83377 69.5921 2.81295C69.4839 2.79114 69.3796 2.78221 69.2704 2.77626C69.1622 2.78221 69.0499 2.78915 68.9427 2.807C68.8374 2.82584 68.7402 2.84964 68.645 2.88731C68.5468 2.92499 68.4576 2.96961 68.3734 3.02414C68.2902 3.07769 68.2151 3.14015 68.1399 3.20857C68.0657 3.27698 68.0016 3.35234 67.9435 3.43563C67.8894 3.51495 67.8463 3.60121 67.8072 3.69045C67.7661 3.78365 67.738 3.88479 67.717 3.98493C67.7009 4.09102 67.6949 4.20009 67.6839 4.30916C67.6949 4.50647 67.6979 4.70775 67.724 4.90308C67.7551 5.09742 67.8052 5.28977 67.8773 5.4742C67.9144 5.56938 67.9565 5.66655 68.0036 5.75777C68.0557 5.86188 68.1129 5.96004 68.178 6.05919C68.2431 6.16826 68.3203 6.27435 68.4025 6.37648C68.4907 6.48753 68.5809 6.59462 68.6731 6.7017L72.1978 10.6876C72.3662 10.875 72.5366 11.0604 72.6999 11.2528C72.8493 11.4323 72.9996 11.6206 73.1399 11.81C73.2732 11.9895 73.4025 12.1699 73.5268 12.3573C73.645 12.5348 73.7523 12.7113 73.8565 12.8987C73.9547 13.0841 74.0399 13.2785 74.1161 13.4738C74.1932 13.684 74.2564 13.9021 74.3045 14.1193C74.3576 14.3592 74.3957 14.6012 74.4197 14.8431C74.4418 15.1088 74.4538 15.3755 74.4608 15.6433C74.4518 15.8148 74.4398 15.9853 74.4237 16.1579C74.4017 16.3175 74.3786 16.4771 74.3416 16.6387C74.3065 16.7904 74.2644 16.9412 74.2153 17.0879C74.1662 17.2287 74.111 17.3715 74.0439 17.5033C73.9818 17.6402 73.9086 17.7701 73.8284 17.898C73.7503 18.0179 73.6661 18.1389 73.5729 18.2529C73.4797 18.368 73.3794 18.477 73.2702 18.5791C73.163 18.6842 73.0437 18.7834 72.9244 18.8756C72.8022 18.9688 72.6739 19.0541 72.5426 19.1354C72.4113 19.2207 72.278 19.293 72.1417 19.3654C72.0054 19.4358 71.8611 19.5013 71.7188 19.5578C71.5755 19.6163 71.4221 19.6678 71.2758 19.7164C71.1175 19.762 70.9591 19.8047 70.8068 19.8404C70.6444 19.8771 70.4811 19.9058 70.3167 19.9286C70.1523 19.9524 69.981 19.9703 69.8096 19.9802C69.6342 19.9931 69.4508 19.996 69.2754 20C69.097 19.996 68.9176 19.9931 68.7412 19.9802C68.5688 19.9703 68.3985 19.9504 68.2291 19.9256C68.0648 19.9008 67.9004 19.8731 67.743 19.8374C67.5837 19.8017 67.4263 19.761 67.275 19.7125C67.1227 19.6649 66.9784 19.6093 66.829 19.5489C66.6877 19.4923 66.5504 19.4289 66.4151 19.3565C66.2788 19.2861 66.1495 19.2088 66.0222 19.1294C65.893 19.0471 65.7677 18.9579 65.6464 18.8617C65.5272 18.7725 65.4189 18.6704 65.3087 18.5663C65.2065 18.4621 65.1032 18.3561 65.012 18.242C64.9218 18.127 64.8366 18.01 64.7605 17.8821C64.6873 17.7582 64.6162 17.6263 64.557 17.4934C64.4899 17.3566 64.4358 17.2188 64.3897 17.077C64.3396 16.9283 64.3005 16.7795 64.2654 16.6288C64.2313 16.4741 64.2073 16.3125 64.1872 16.1549C64.1712 15.9824 64.1581 15.8118 64.1511 15.6423V13.6156H67.6859V15.4261C67.6959 15.5649 67.6999 15.7097 67.72 15.8475C67.741 15.9685 67.7691 16.0914 67.8102 16.2084C67.8453 16.3165 67.8884 16.4216 67.9455 16.5168C68.0036 16.607 68.0657 16.6913 68.1429 16.7676C68.2161 16.839 68.2902 16.9025 68.3754 16.961C68.4606 17.0145 68.5488 17.0641 68.648 17.0988C68.7422 17.1365 68.8415 17.1633 68.9457 17.1811C69.0519 17.197 69.1652 17.2029 69.2744 17.2079C69.3847 17.2009 69.4879 17.195 69.5981 17.1752C69.6963 17.1583 69.7945 17.1305 69.8948 17.0919C69.986 17.0532 70.0732 17.0026 70.1563 16.9471C70.2445 16.8856 70.3247 16.8202 70.3939 16.7458C70.469 16.6695 70.5332 16.5842 70.5903 16.494C70.6464 16.3958 70.6935 16.2927 70.7316 16.1886C70.7737 16.0706 70.8048 15.9506 70.8208 15.8316C70.8439 15.6948 70.8519 15.56 70.8589 15.4251C70.8549 15.3012 70.8519 15.1762 70.8409 15.0503C70.8248 14.9313 70.8068 14.8133 70.7807 14.6914C70.7577 14.5793 70.7266 14.4683 70.6885 14.3563C70.6484 14.2442 70.6053 14.1361 70.5562 14.0291C70.456 13.8109 70.3307 13.5997 70.1944 13.4004C70.0371 13.1843 69.8667 12.982 69.6943 12.7768L66.7619 9.8012C66.5444 9.55729 66.3249 9.31833 66.1155 9.07144C65.9301 8.8533 65.7446 8.62922 65.5662 8.40117C65.4129 8.20485 65.2566 8.00357 65.1113 7.79932C64.985 7.61985 64.8627 7.43939 64.7464 7.25299C64.6953 7.16474 64.6442 7.07749 64.6001 6.9823C64.552 6.88712 64.5129 6.78499 64.4728 6.68683C64.4318 6.57776 64.3937 6.46968 64.3616 6.36062C64.3275 6.24659 64.3045 6.1286 64.2754 6.01259C64.2534 5.88568 64.2283 5.75876 64.2103 5.62986C64.1862 5.497 64.1732 5.35918 64.1572 5.22532C64.1461 5.08056 64.1401 4.93679 64.1351 4.79599C64.1311 4.63933 64.1301 4.48565 64.1271 4.33196C64.1351 4.16836 64.1401 4.00972 64.1572 3.84612C64.1762 3.69045 64.1982 3.53775 64.2303 3.38407C64.2634 3.2393 64.2995 3.09355 64.3466 2.95077C64.3917 2.81295 64.4428 2.67414 64.5009 2.54127C64.564 2.41237 64.6302 2.28348 64.7074 2.15954C64.7825 2.03659 64.8627 1.92058 64.9509 1.80556C65.0411 1.69154 65.1363 1.58247 65.2405 1.47737C65.3428 1.36929 65.45 1.26915 65.5662 1.17595C65.6845 1.07977 65.8068 0.990531 65.9351 0.906252C66.0623 0.821972 66.1926 0.743642 66.3269 0.670269C66.4642 0.596897 66.6035 0.530465 66.7509 0.469982C66.8952 0.408507 67.0415 0.351991 67.1958 0.304397C67.3542 0.254821 67.5105 0.212186 67.6739 0.177483C67.8413 0.138813 68.0106 0.109067 68.179 0.0832879C68.3554 0.0555253 68.5338 0.0356948 68.7122 0.024788C68.9026 0.00892368 69.087 0.00396609 69.2724 0ZM37.285 0.244906V19.7472H33.7282V0.244906H37.285ZM15.7577 0.244906L18.0307 14.7043H18.1139L20.4169 0.244906H23.8364L26.1104 14.7043H26.1946L28.4957 0.244906H31.7509L27.7941 19.7462H24.3706L22.0425 8.23955L19.7144 19.7462H16.2898L12.3071 0.244906H15.7577ZM10.7667 0.268703V3.01621H7.14672V19.7462H3.5909V3.01621H0V0.268703H10.7667ZM62.2049 0.268703V3.01621H58.5869V19.7462H55.0341V3.01621H51.4382V0.268703H62.2049ZM106.649 0.244906V7.20936H106.705L110.157 0.244906H113.468L108.726 8.96436L114.534 19.7462H110.494L106.902 12.2522H106.734L106.649 12.4486V19.7462H103.094V0.244906H106.649ZM80.1523 0.244906V7.97977H83.8685V0.244906H87.4263V19.7462H83.8685V10.7263H80.1523V19.7462H76.5925V0.244906H80.1523ZM97.0124 0.244906L101.053 19.7462H97.5486L96.8461 15.1197H93.4526L92.7771 19.7462H89.4648L93.5057 0.244906H97.0124ZM124.606 0.254821V3.03208H119.639V7.96391H123.203V10.7422H119.639V16.962H125V19.7363H116.082V0.254821H124.606ZM95.2195 5.37207H95.1343L94.0379 12.3236H96.2838L95.2195 5.37207Z" class="css-e2i13a"></path></svg>